#!OML:ASF X:\für Bonn\!DataBase\2005_08_10_Bjorn_Final\c3d\bjorn.ASF
:FULLY-SPECIFIED
:DEGREES
158
root 1.66042 18.8959 2.73168 -181.754 7.87549 -183.531
lowerback 2.32548 -1.19214 8.20575
upperback 11.8878 -0.52722 2.05761
thorax 11.3962 1.08268 -2.23802
lowerneck -0.468837 4.04852 0.625748
upperneck 12.009 8.36231 -13.9584
head 4.27496 4.02235 -4.01406
rclavicle 1.35174e-014 -3.49861e-014
rhumerus -29.2549 -6.84005 -84.344
rradius 47.1845
rwrist -6.66884
rhand -10.7244 11.8746
rfingers 7.12502
rthumb 15.286 -17.5405
lclavicle 1.35174e-014 -3.49861e-014
lhumerus -37.6233 -41.2312 84.1837
lradius 72.8546
lwrist 8.15486
lhand -16.0725 -4.24936
lfingers 7.12502
lthumb 10.1302 25.4868
rfemur -16.1252 -7.89965 16.1464
rtibia 39.604
rfoot -14.2972 26.3192
rtoes -3.09572
lfemur -16.8087 0.489469 -21.1325
ltibia 56.6134
lfoot -24.9895 8.28055
ltoes -15.2253
159
root 1.6793 18.8811 2.7217 -181.782 7.9379 -182.955
lowerback 1.92641 -1.04235 8.02004
upperback 11.85 -0.388901 2.05453
thorax 11.6081 1.12501 -2.12845
lowerneck -0.327564 3.83617 0.842275
upperneck 12.3921 8.04535 -13.5253
head 4.33079 3.87832 -3.93462
rclavicle -3.4191e-014 3.02153e-014
rhumerus -28.7007 -6.70783 -84.2517
rradius 46.8453
rwrist -6.32351
rhand -10.782 11.6754
rfingers 7.12502
rthumb 15.2305 -17.744
lclavicle -3.4191e-014 3.02153e-014
lhumerus -38.4249 -40.637 85.0971
lradius 72.7657
lwrist 8.92632
lhand -13.6655 -2.35493
lfingers 7.12502
lthumb 12.4516 27.2542
rfemur -16.0777 -9.16684 16.6903
rtibia 39.7355
rfoot -13.6447 27.7417
rtoes -1.73447
lfemur -16.2551 0.83202 -20.3551
ltibia 56.6136
lfoot -24.8476 8.14093
ltoes -14.9546
160
root 1.69755 18.8599 2.71368 -181.784 7.97229 -182.348
lowerback 1.51869 -0.902855 7.85564
upperback 11.7976 -0.267148 2.09251
thorax 11.8067 1.1575 -1.98613
lowerneck -0.0656234 3.62889 0.945077
upperneck 12.6156 7.70549 -13.0598
head 4.31237 3.7322 -3.83089
rclavicle 1.98785e-014 5.40694e-014
rhumerus -28.1159 -6.52352 -84.1042
rradius 46.3999
rwrist -6.05492
rhand -10.7769 11.4811
rfingers 7.12502
rthumb 15.2354 -17.9379
lclavicle 1.98785e-014 5.40694e-014
lhumerus -39.2023 -39.8326 85.9839
lradius 72.701
lwrist 9.06347
lhand -11.3032 -0.776235
lfingers 7.12502
lthumb 14.7284 28.6805
rfemur -16.085 -10.5413 17.266
rtibia 39.9066
rfoot -12.9685 29.2065
rtoes -0.447473
lfemur -15.7131 1.17038 -19.5154
ltibia 56.5901
lfoot -24.6782 8.06134
ltoes -15.2185
161
root 1.71587 18.8424 2.70738 -181.762 7.98223 -181.74
lowerback 1.10975 -0.774401 7.69806
upperback 11.7395 -0.159423 2.13293
thorax 11.9983 1.1828 -1.84486
lowerneck 0.265849 3.42819 1.00269
upperneck 12.7153 7.35142 -12.582
head 4.24349 3.58411 -3.718
rclavicle -6.36111e-015 -3.33958e-014
rhumerus -27.5669 -6.31477 -83.9597
rradius 45.958
rwrist -5.7327
rhand -10.7217 11.245
rfingers 7.12502
rthumb 15.2885 -18.17
lclavicle -6.36111e-015 -3.33958e-014
lhumerus -39.9505 -38.9274 86.7614
lradius 72.7
lwrist 8.73842
lhand -9.16231 0.522266
lfingers 7.12502
lthumb 16.7902 29.8163
rfemur -16.1192 -12.0078 17.8319
rtibia 40.0871
rfoot -12.1677 30.7459
rtoes 1.02992
lfemur -15.1598 1.47256 -18.6542
ltibia 56.4969
lfoot -24.5179 7.97528
ltoes -15.6444
162
root 1.733 18.8235 2.70116 -181.74 8.00946 -181.133
lowerback 0.680706 -0.646607 7.5609
upperback 11.7095 -0.0494767 2.17176
thorax 12.2361 1.21529 -1.71292
lowerneck 0.6219 3.22403 1.03596
upperneck 12.6851 6.97281 -12.1246
head 4.13142 3.42521 -3.60855
rclavicle -1.59028e-014 -4.13472e-014
rhumerus -26.9826 -6.18406 -83.7955
rradius 45.4788
rwrist -5.26402
rhand -10.4968 11.0587
rfingers 7.12502
rthumb 15.5052 -18.3395
lclavicle -1.59028e-014 -4.13472e-014
lhumerus -40.6146 -37.9145 87.4415
lradius 72.6928
lwrist 8.00561
lhand -7.2447 1.46616
lfingers 7.12502
lthumb 18.6355 30.5935
rfemur -16.1657 -13.5243 18.3825
rtibia 40.2835
rfoot -11.2023 32.3431
rtoes 2.75323
lfemur -14.5788 1.78201 -17.7809
ltibia 56.3429
lfoot -24.3509 7.90363
ltoes -16.1595
163
root 1.74989 18.8043 2.69584 -181.731 8.04304 -180.526
lowerback 0.272281 -0.528478 7.44301
upperback 11.6882 0.0530229 2.19777
thorax 12.4718 1.2477 -1.60454
lowerneck 0.985536 3.03611 1.06872
upperneck 12.592 6.60663 -11.6666
head 4.0022 3.27224 -3.49758
rclavicle -1.90833e-014 6.36111e-015
rhumerus -26.3641 -6.04863 -83.6421
rradius 44.9079
rwrist -4.73281
rhand -10.1792 10.9537
rfingers 7.12502
rthumb 15.8111 -18.4207
lclavicle -1.90833e-014 6.36111e-015
lhumerus -41.2178 -36.8308 88.0264
lradius 72.6671
lwrist 6.98295
lhand -5.39064 2.14789
lfingers 7.12502
lthumb 20.418 31.0944
rfemur -16.1907 -15.0216 18.9231
rtibia 40.4753
rfoot -10.1844 33.9226
rtoes 4.425
lfemur -13.958 2.07442 -16.8943
ltibia 56.1123
lfoot -24.2192 7.7035
ltoes -16.3807
164
root 1.76533 18.7847 2.69102 -181.726 8.09908 -179.961
lowerback -0.142935 -0.41547 7.30176
upperback 11.689 0.154267 2.2136
thorax 12.7377 1.27996 -1.49171
lowerneck 1.35586 2.86189 1.05134
upperneck 12.4025 6.2448 -11.202
head 3.844 3.11949 -3.37548
rclavicle -1.70955e-014 -3.65764e-014
rhumerus -25.6678 -5.85816 -83.4815
rradius 44.2949
rwrist -4.14934
rhand -9.79343 10.8626
rfingers 7.12502
rthumb 16.1826 -18.4819
lclavicle -1.70955e-014 -3.65764e-014
lhumerus -41.7025 -35.6434 88.5572
lradius 72.5273
lwrist 5.77602
lhand -3.77641 2.52695
lfingers 7.12502
lthumb 21.9687 31.2995
rfemur -16.2304 -16.5918 19.3989
rtibia 40.6766
rfoot -8.95422 35.5685
rtoes 6.339
lfemur -13.315 2.36076 -16.0575
ltibia 55.8096
lfoot -24.077 7.54879
ltoes -16.7907
165
root 1.78073 18.7645 2.68827 -181.738 8.15823 -179.438
lowerback -0.499551 -0.31992 7.10789
upperback 11.6853 0.243708 2.22805
thorax 12.9597 1.2995 -1.3528
lowerneck 1.6796 2.71221 0.980942
upperneck 12.2196 5.92218 -10.7234
head 3.69912 2.98109 -3.23669
rclavicle -2.18663e-014 -2.38542e-015
rhumerus -24.9634 -5.61011 -83.3158
rradius 43.6823
rwrist -3.55748
rhand -9.39758 10.7654
rfingers 7.12502
rthumb 16.5637 -18.5477
lclavicle -2.18663e-014 -2.38542e-015
lhumerus -42.0673 -34.2681 89.022
lradius 72.2028
lwrist 4.11315
lhand -2.4771 2.63063
lfingers 7.12502
lthumb 23.2157 31.2514
rfemur -16.2679 -18.1943 19.8147
rtibia 40.8909
rfoot -7.63225 37.2361
rtoes 8.15047
lfemur -12.6425 2.61803 -15.2592
ltibia 55.4406
lfoot -23.9696 7.37644
ltoes -17.1426
166
root 1.79461 18.7444 2.6864 -181.752 8.23083 -178.959
lowerback -0.813882 -0.222011 6.89517
upperback 11.6674 0.343117 2.22585
thorax 13.1388 1.31996 -1.2214
lowerneck 1.9388 2.5686 0.968755
upperneck 12.0914 5.63142 -10.3141
head 3.58854 2.85516 -3.12533
rclavicle -1.59028e-014 -4.6118e-014
rhumerus -24.2865 -5.35056 -83.1544
rradius 43.0809
rwrist -2.99284
rhand -9.03398 10.6953
rfingers 7.12502
rthumb 16.9137 -18.5882
lclavicle -1.59028e-014 -4.6118e-014
lhumerus -42.3623 -32.767 89.4151
lradius 71.7961
lwrist 2.04464
lhand -1.57511 2.53101
lfingers 7.12502
lthumb 24.0809 31.04
rfemur -16.3116 -19.6259 20.1846
rtibia 41.1168
rfoot -6.23818 38.7263
rtoes 10.0686
lfemur -11.9522 2.85485 -14.5225
ltibia 55.0111
lfoot -23.8984 7.23888
ltoes -17.4044
167
root 1.80689 18.7237 2.68644 -181.767 8.32028 -178.493
lowerback -1.10218 -0.133202 6.70146
upperback 11.6589 0.436292 2.20993
thorax 13.3128 1.34109 -1.11531
lowerneck 2.15308 2.45405 0.865242
upperneck 11.6673 5.3194 -9.57873
head 3.79129 2.75568 -3.22174
rclavicle 1.47101e-014 -1.03368e-014
rhumerus -23.5992 -4.98495 -83.0099
rradius 42.4915
rwrist -2.46565
rhand -8.7429 10.6402
rfingers 7.12502
rthumb 17.1939 -18.6191
lclavicle 1.47101e-014 -1.03368e-014
lhumerus -42.609 -31.1473 89.7124
lradius 71.3687
lwrist -0.347522
lhand -1.33893 2.16201
lfingers 7.12502
lthumb 24.3073 30.6408
rfemur -16.3602 -20.8414 20.5562
rtibia 41.3555
rfoot -5.00695 39.9972
rtoes 11.6108
lfemur -11.2373 3.06336 -13.8132
ltibia 54.5312
lfoot -23.8839 7.06996
ltoes -17.415
